<mxfile host="app.diagrams.net" modified="2024-02-21T06:27:59.809Z" agent="Mozilla/5.0 (Windows NT 10.0; Win64; x64) AppleWebKit/537.36 (KHTML, like Gecko) Chrome/111.0.0.0 Safari/537.36  115Browser/26.0.2.5" version="23.1.5" etag="d2Ee8UkZZWHn6S_UHnNZ" type="github">
  <diagram name="第 1 页" id="7w0hsRTSy3T0NByx2GKz">
    <mxGraphModel>
      <root>
        <mxCell id="0" />
        <mxCell id="1" parent="0" />
      </root>
    </mxGraphModel>
  </diagram>
</mxfile>
